<svg width="60" height="60" viewBox="0 0 60 60" fill="none" xmlns="http://www.w3.org/2000/svg">
<rect width="60" height="60" rx="18" fill="#FF0000"/>
<g clip-path="url(#clip0_19_3)">
<path d="M6.18262 17.5791C6.50163 17.5426 6.83203 17.5107 7.17383 17.4834C7.52018 17.4561 7.84375 17.4424 8.14453 17.4424C8.23568 17.4378 8.34049 17.4333 8.45898 17.4287C8.55924 17.4242 8.67546 17.4219 8.80762 17.4219C8.94434 17.4173 9.09245 17.415 9.25195 17.415C9.42057 17.415 9.59831 17.4173 9.78516 17.4219C9.97656 17.4264 10.168 17.4333 10.3594 17.4424C10.3776 17.1689 10.3958 16.8864 10.4141 16.5947C10.4323 16.3031 10.4482 16.0228 10.4619 15.7539C10.4801 15.4805 10.4938 15.2298 10.5029 15.002C10.5166 14.7695 10.528 14.5758 10.5371 14.4209V13.9561C10.5371 13.8285 10.5371 13.7031 10.5371 13.5801C10.5371 13.4525 10.5417 13.3499 10.5508 13.2725C10.5827 13.1221 10.6488 13.0469 10.749 13.0469C10.8083 13.0469 10.8538 13.0537 10.8857 13.0674C10.9176 13.0811 10.9746 13.1061 11.0566 13.1426C11.0977 13.1562 11.141 13.1745 11.1865 13.1973C11.2367 13.2201 11.2845 13.2451 11.3301 13.2725C11.3757 13.2952 11.4167 13.3203 11.4531 13.3477C11.4896 13.3704 11.5169 13.391 11.5352 13.4092C11.5534 13.4274 11.5762 13.4593 11.6035 13.5049C11.6309 13.5459 11.6582 13.5915 11.6855 13.6416C11.7129 13.6917 11.7357 13.7441 11.7539 13.7988C11.7721 13.849 11.779 13.8923 11.7744 13.9287C11.7699 13.9652 11.7585 14.0996 11.7402 14.332C11.722 14.5599 11.6992 14.863 11.6719 15.2412C11.6445 15.6149 11.6149 16.0501 11.583 16.5469C11.5511 17.0436 11.5215 17.5745 11.4941 18.1396C11.4531 19.0511 11.4326 19.8076 11.4326 20.4092C11.4326 20.8604 11.4395 21.2249 11.4531 21.5029C11.4714 21.7809 11.4941 21.9769 11.5215 22.0908C11.5625 22.2822 11.5921 22.4189 11.6104 22.501C11.6286 22.583 11.6263 22.6377 11.6035 22.665C11.5944 22.6742 11.5807 22.6833 11.5625 22.6924C11.5169 22.7106 11.4417 22.7288 11.3369 22.7471C11.3187 22.7972 11.3005 22.8382 11.2822 22.8701C11.264 22.8975 11.2458 22.9202 11.2275 22.9385C11.2093 22.9567 11.1911 22.9727 11.1729 22.9863C11.1273 23 11.084 23.0137 11.043 23.0273C11.002 23.041 10.9701 23.0365 10.9473 23.0137C10.9336 23.0091 10.9222 23.0023 10.9131 22.9932C10.8949 22.984 10.8789 22.959 10.8652 22.918C10.8197 22.9362 10.7786 22.9362 10.7422 22.918C10.724 22.9089 10.708 22.8997 10.6943 22.8906C10.6579 22.8587 10.6055 22.8018 10.5371 22.7197C10.4688 22.6377 10.4232 22.526 10.4004 22.3848C10.3913 22.3164 10.3753 22.2435 10.3525 22.166C10.3343 22.084 10.3138 22.002 10.291 21.9199C10.2728 21.8333 10.2523 21.7513 10.2295 21.6738C10.2113 21.5918 10.1976 21.5166 10.1885 21.4482C10.1748 21.3844 10.168 21.25 10.168 21.0449C10.1725 20.8398 10.1794 20.6006 10.1885 20.3271C10.2021 20.0537 10.2181 19.762 10.2363 19.4521C10.2546 19.1423 10.2728 18.8506 10.291 18.5771C10.291 18.5407 10.291 18.502 10.291 18.4609C10.291 18.4199 10.2956 18.3743 10.3047 18.3242C10.0996 18.3151 9.89681 18.3105 9.69629 18.3105C9.50033 18.3105 9.3112 18.3105 9.12891 18.3105C8.90104 18.3105 8.69368 18.3128 8.50684 18.3174C8.31999 18.3174 8.15592 18.3197 8.01465 18.3242C7.85059 18.3288 7.70247 18.3333 7.57031 18.3379C7.08724 18.3379 6.62012 18.3516 6.16895 18.3789C6.16439 18.4473 6.15983 18.5065 6.15527 18.5566C6.15527 18.6068 6.15527 18.6501 6.15527 18.6865V18.7891C6.14616 19.2357 6.13704 19.6641 6.12793 20.0742C6.11882 20.4844 6.11198 20.8512 6.10742 21.1748C6.10286 21.4984 6.09831 21.7673 6.09375 21.9814C6.09375 22.1956 6.09603 22.3301 6.10059 22.3848C6.10059 22.4303 6.09831 22.4782 6.09375 22.5283C6.08919 22.5739 6.08008 22.6286 6.06641 22.6924C6.05729 22.7516 6.04134 22.8177 6.01855 22.8906C5.97298 22.8952 5.92969 22.9111 5.88867 22.9385C5.87044 22.9521 5.85221 22.9635 5.83398 22.9727C5.79297 23 5.75423 23.0296 5.71777 23.0615C5.68587 23.098 5.65625 23.1048 5.62891 23.082C5.59245 23.0547 5.54688 23.0365 5.49219 23.0273C5.44206 23.0182 5.37826 23.0137 5.30078 23.0137C5.26432 23.0137 5.22559 23.0023 5.18457 22.9795C5.14355 22.9567 5.10482 22.9316 5.06836 22.9043C5.0319 22.8724 5 22.8382 4.97266 22.8018C4.94531 22.7653 4.92936 22.7334 4.9248 22.7061C4.91569 22.6787 4.9043 22.64 4.89062 22.5898C4.87695 22.5352 4.86328 22.4805 4.84961 22.4258C4.84049 22.3665 4.83138 22.3118 4.82227 22.2617C4.81315 22.207 4.80632 22.1683 4.80176 22.1455C4.7972 22.1227 4.7972 22.0088 4.80176 21.8037C4.80632 21.5986 4.81543 21.3298 4.8291 20.9971C4.84277 20.6598 4.85872 20.2747 4.87695 19.8418C4.89518 19.4043 4.91569 18.944 4.93848 18.4609C4.7653 18.4792 4.61947 18.4951 4.50098 18.5088C4.38249 18.5179 4.30957 18.527 4.28223 18.5361C4.2321 18.5452 4.19108 18.5566 4.15918 18.5703C4.13184 18.5794 4.10677 18.5885 4.08398 18.5977C4.06576 18.6068 4.04753 18.6136 4.0293 18.6182C4.01107 18.6182 3.99284 18.6136 3.97461 18.6045C3.94727 18.6045 3.91992 18.5885 3.89258 18.5566C3.86979 18.5202 3.85384 18.4792 3.84473 18.4336C3.7946 18.4245 3.76042 18.4085 3.74219 18.3857C3.72852 18.3584 3.71712 18.3379 3.70801 18.3242C3.70801 18.2878 3.72396 18.2627 3.75586 18.249C3.79232 18.2308 3.84701 18.1852 3.91992 18.1123C3.95182 18.0804 3.9974 18.0508 4.05664 18.0234C4.12044 17.9915 4.18652 17.9619 4.25488 17.9346C4.32324 17.9072 4.38932 17.8844 4.45312 17.8662C4.52148 17.8434 4.58073 17.8275 4.63086 17.8184L4.96582 17.7637C4.99316 17.3171 5.02051 16.9092 5.04785 16.54C5.0752 16.1709 5.10026 15.8291 5.12305 15.5146C5.14583 15.2002 5.16406 14.9085 5.17773 14.6396C5.19596 14.3662 5.20508 14.1019 5.20508 13.8467C5.20508 13.7738 5.2028 13.7054 5.19824 13.6416C5.19368 13.5778 5.19141 13.5094 5.19141 13.4365C5.19141 13.3818 5.20508 13.3363 5.23242 13.2998C5.26432 13.2588 5.30306 13.2337 5.34863 13.2246H5.43066C5.48079 13.2246 5.57422 13.2314 5.71094 13.2451C5.72917 13.1995 5.74967 13.1699 5.77246 13.1562C5.78613 13.1471 5.79753 13.1426 5.80664 13.1426C5.8431 13.1426 5.87272 13.1517 5.89551 13.1699C5.92285 13.1836 5.94108 13.1973 5.9502 13.2109C5.9502 13.2201 5.95247 13.2292 5.95703 13.2383C5.96159 13.252 5.96842 13.2725 5.97754 13.2998C6.014 13.3089 6.04134 13.318 6.05957 13.3271C6.0778 13.3363 6.09375 13.3454 6.10742 13.3545C6.12109 13.3682 6.13249 13.3773 6.1416 13.3818L6.16211 13.4229C6.17578 13.4502 6.18945 13.5026 6.20312 13.5801C6.23503 13.6484 6.25553 13.6963 6.26465 13.7236C6.26921 13.7419 6.27148 13.7533 6.27148 13.7578C6.27148 13.7669 6.27376 13.7783 6.27832 13.792C6.27832 13.8011 6.27832 13.8102 6.27832 13.8193C6.28288 13.8285 6.28516 13.8376 6.28516 13.8467L6.18262 17.5791ZM19.9365 22.8018C19.9365 22.8382 19.9137 22.8587 19.8682 22.8633C19.8226 22.8633 19.7747 22.8633 19.7246 22.8633C19.7018 22.8678 19.679 22.8724 19.6562 22.877C19.6335 22.8861 19.6084 22.8952 19.5811 22.9043C19.5583 22.9089 19.5355 22.9225 19.5127 22.9453C19.5218 22.9909 19.5241 23.0251 19.5195 23.0479C19.5195 23.0752 19.5195 23.0957 19.5195 23.1094L19.5127 23.1367C19.499 23.1549 19.4717 23.1686 19.4307 23.1777C19.3896 23.1914 19.3464 23.1982 19.3008 23.1982C19.2917 23.1982 19.278 23.196 19.2598 23.1914C19.2279 23.1823 19.196 23.1595 19.1641 23.123C19.0866 23.1003 18.9954 23.0775 18.8906 23.0547C18.8359 23.041 18.7767 23.0273 18.7129 23.0137C18.6628 23 18.6195 22.9635 18.583 22.9043C18.5465 22.8451 18.5124 22.7767 18.4805 22.6992C18.4531 22.6172 18.4258 22.5352 18.3984 22.4531C18.3757 22.3665 18.3551 22.2913 18.3369 22.2275L17.667 20.1152C17.5667 20.1152 17.4391 20.1175 17.2842 20.1221C17.1338 20.1221 16.972 20.1243 16.7988 20.1289C16.6257 20.1289 16.4502 20.1335 16.2725 20.1426C16.0947 20.1471 15.9329 20.1517 15.7871 20.1562L14.4199 20.2246L13.6201 22.3164C13.6064 22.3392 13.5859 22.3848 13.5586 22.4531C13.5358 22.5215 13.5107 22.5944 13.4834 22.6719C13.4561 22.7448 13.431 22.8154 13.4082 22.8838C13.3854 22.9476 13.3717 22.9863 13.3672 23C13.3581 23.0365 13.3307 23.0592 13.2852 23.0684C13.2396 23.0775 13.2008 23.0866 13.1689 23.0957C13.1416 23.1048 13.1188 23.1299 13.1006 23.1709C13.0824 23.2119 13.055 23.2393 13.0186 23.2529C12.9821 23.2757 12.9365 23.278 12.8818 23.2598C12.8271 23.2415 12.7793 23.2119 12.7383 23.1709C12.7018 23.1253 12.6882 23.0684 12.6973 23C12.7064 22.9271 12.7109 22.8519 12.7109 22.7744C12.7109 22.6969 12.7087 22.624 12.7041 22.5557C12.7041 22.4873 12.7155 22.4212 12.7383 22.3574C12.7474 22.3301 12.7747 22.2458 12.8203 22.1045C12.8704 21.9587 12.932 21.7855 13.0049 21.585C13.0778 21.3799 13.1576 21.1589 13.2441 20.9219C13.3307 20.6803 13.4196 20.4479 13.5107 20.2246C13.4287 20.2246 13.3717 20.2018 13.3398 20.1562C13.3171 20.1198 13.2897 20.0993 13.2578 20.0947C13.2259 20.0856 13.1917 20.0742 13.1553 20.0605C13.1188 20.0514 13.0938 20.0309 13.0801 19.999C13.0664 19.9671 13.0641 19.9398 13.0732 19.917C13.0824 19.8896 13.0755 19.8669 13.0527 19.8486C13.0299 19.8304 13.0186 19.7894 13.0186 19.7256C13.0186 19.6982 13.0391 19.6732 13.0801 19.6504C13.1257 19.623 13.1803 19.6003 13.2441 19.582C13.3079 19.5638 13.3786 19.5479 13.4561 19.5342C13.5381 19.5205 13.6156 19.5091 13.6885 19.5C13.7021 19.5 13.7181 19.5 13.7363 19.5C13.7591 19.5 13.7819 19.4954 13.8047 19.4863C13.9049 19.2448 14.0189 18.985 14.1465 18.707C14.2741 18.4245 14.404 18.1374 14.5361 17.8457C14.6729 17.554 14.8096 17.2624 14.9463 16.9707C15.083 16.679 15.2129 16.4056 15.3359 16.1504C15.459 15.8906 15.5706 15.6536 15.6709 15.4395C15.7757 15.2253 15.8623 15.0475 15.9307 14.9062C15.876 14.7376 15.8258 14.5827 15.7803 14.4414C15.7393 14.3001 15.7028 14.1771 15.6709 14.0723C15.639 13.9674 15.6139 13.8854 15.5957 13.8262C15.5775 13.7624 15.5684 13.7259 15.5684 13.7168C15.5638 13.7077 15.5638 13.6986 15.5684 13.6895C15.5775 13.6667 15.6003 13.653 15.6367 13.6484C15.6003 13.5801 15.582 13.5299 15.582 13.498C15.582 13.4798 15.5866 13.4684 15.5957 13.4639C15.6048 13.4548 15.6276 13.4456 15.6641 13.4365C15.7005 13.4274 15.7393 13.4206 15.7803 13.416C15.8213 13.4069 15.86 13.4023 15.8965 13.4023C15.9329 13.3978 15.958 13.3955 15.9717 13.3955C15.9762 13.3955 15.9876 13.3978 16.0059 13.4023C16.0332 13.4115 16.0719 13.432 16.1221 13.4639C16.1266 13.4411 16.1312 13.4251 16.1357 13.416C16.1449 13.4069 16.154 13.3978 16.1631 13.3887L16.1836 13.3682C16.2109 13.3545 16.2406 13.3522 16.2725 13.3613C16.3044 13.3659 16.334 13.3682 16.3613 13.3682C16.3887 13.3682 16.4069 13.3568 16.416 13.334C16.4297 13.3112 16.4593 13.2998 16.5049 13.2998C16.5641 13.2998 16.6143 13.3636 16.6553 13.4912C16.6598 13.514 16.6917 13.6006 16.751 13.751C16.8102 13.8968 16.8854 14.0905 16.9766 14.332C17.0677 14.569 17.1725 14.8447 17.291 15.1592C17.4141 15.4736 17.5417 15.8086 17.6738 16.1641C17.806 16.515 17.9382 16.8796 18.0703 17.2578C18.207 17.6315 18.3369 18.0007 18.46 18.3652C18.7152 19.1081 18.9294 19.7347 19.1025 20.2451C19.2757 20.7555 19.4147 21.1725 19.5195 21.4961C19.6289 21.8197 19.7087 22.0612 19.7588 22.2207C19.8135 22.3802 19.8477 22.4759 19.8613 22.5078C19.8841 22.5807 19.9023 22.64 19.916 22.6855C19.9297 22.7266 19.9365 22.7653 19.9365 22.8018ZM16.9902 18.126C16.8717 17.7887 16.7419 17.4105 16.6006 16.9912C16.4639 16.5719 16.3294 16.1572 16.1973 15.7471C16.1198 15.9476 16.0264 16.1891 15.917 16.4717C15.8076 16.7542 15.6914 17.0459 15.5684 17.3467C15.4499 17.6475 15.3337 17.9414 15.2197 18.2285C15.1058 18.5156 15.0055 18.7617 14.9189 18.9668L14.7275 19.418L15.958 19.3428C16.0628 19.3428 16.1882 19.3405 16.334 19.3359C16.5801 19.3314 16.9355 19.3245 17.4004 19.3154L16.9902 18.126ZM22.4248 14.7559C22.4248 14.8652 22.4225 15.0065 22.418 15.1797C22.4134 15.3483 22.4066 15.542 22.3975 15.7607C22.3929 15.9795 22.3861 16.2165 22.377 16.4717C22.3678 16.7223 22.361 16.9844 22.3564 17.2578C22.4886 17.1803 22.6458 17.1051 22.8281 17.0322C23.015 16.9548 23.2087 16.8727 23.4092 16.7861C23.6143 16.6995 23.8171 16.6061 24.0176 16.5059C24.2227 16.4056 24.4095 16.2939 24.5781 16.1709C24.9928 15.8564 25.3027 15.5716 25.5078 15.3164C25.7174 15.0566 25.8223 14.8174 25.8223 14.5986C25.8223 14.5075 25.8063 14.43 25.7744 14.3662C25.7471 14.3024 25.7129 14.2454 25.6719 14.1953C25.5671 14.1361 25.4098 14.0859 25.2002 14.0449C24.9951 14.0039 24.7422 13.9834 24.4414 13.9834C24.1589 13.9834 23.874 14.0062 23.5869 14.0518C23.3044 14.0928 23.0309 14.1475 22.7666 14.2158C22.5023 14.2796 22.2539 14.3503 22.0215 14.4277C21.7936 14.5052 21.5908 14.5781 21.4131 14.6465C21.2354 14.7148 21.0918 14.7764 20.9824 14.8311C20.873 14.8812 20.807 14.9108 20.7842 14.9199C20.7614 14.929 20.734 14.945 20.7021 14.9678C20.6748 14.986 20.6475 14.9951 20.6201 14.9951C20.5609 14.9951 20.5199 14.9723 20.4971 14.9268C20.4743 14.8812 20.4674 14.8333 20.4766 14.7832C20.4401 14.7695 20.4105 14.7445 20.3877 14.708C20.3649 14.667 20.3467 14.6237 20.333 14.5781C20.3193 14.5326 20.3102 14.4893 20.3057 14.4482C20.3011 14.4027 20.2988 14.3685 20.2988 14.3457C20.2988 14.2546 20.3376 14.1748 20.415 14.1064C20.4971 14.0335 20.6019 13.9697 20.7295 13.915C20.7614 13.9014 20.8298 13.8695 20.9346 13.8193C21.0439 13.7692 21.1807 13.7122 21.3447 13.6484C21.5133 13.5801 21.7025 13.5094 21.9121 13.4365C22.1217 13.3636 22.3451 13.2975 22.582 13.2383C22.819 13.1745 23.0628 13.1221 23.3135 13.0811C23.5641 13.04 23.8125 13.0195 24.0586 13.0195C24.2363 13.0241 24.4255 13.0355 24.626 13.0537C24.8265 13.0674 25.0247 13.0993 25.2207 13.1494C25.4167 13.1995 25.599 13.2702 25.7676 13.3613C25.9408 13.4525 26.0866 13.5755 26.2051 13.7305C26.3327 13.8307 26.4443 13.9674 26.54 14.1406C26.6403 14.3092 26.6904 14.5143 26.6904 14.7559C26.6904 14.9245 26.6745 15.0771 26.6426 15.2139C26.6152 15.346 26.5902 15.4395 26.5674 15.4941C26.4489 15.7904 26.2962 16.0456 26.1094 16.2598C25.9271 16.474 25.7288 16.6585 25.5146 16.8135C25.305 16.9639 25.0931 17.0915 24.8789 17.1963C24.6647 17.3011 24.471 17.3877 24.2979 17.4561C24.4893 17.4561 24.6852 17.4652 24.8857 17.4834C25.0908 17.5016 25.2913 17.5358 25.4873 17.5859C25.6878 17.6315 25.8792 17.6999 26.0615 17.791C26.2438 17.8822 26.4124 17.9984 26.5674 18.1396C26.6676 18.249 26.7588 18.3675 26.8408 18.4951C26.9092 18.6045 26.9707 18.7344 27.0254 18.8848C27.0846 19.0306 27.1143 19.1901 27.1143 19.3633C27.1416 19.4727 27.1553 19.598 27.1553 19.7393C27.1553 19.8988 27.1416 20.0765 27.1143 20.2725C27.0915 20.4456 27.0345 20.6484 26.9434 20.8809C26.8522 21.1133 26.7109 21.3525 26.5195 21.5986C26.3281 21.8447 26.0775 22.0863 25.7676 22.3232C25.4622 22.5557 25.0794 22.7585 24.6191 22.9316C24.332 23.0456 24.07 23.1276 23.833 23.1777C23.596 23.2279 23.3818 23.2529 23.1904 23.2529C23.0993 23.2529 22.999 23.2438 22.8896 23.2256C22.7848 23.2074 22.6846 23.18 22.5889 23.1436C22.4977 23.1117 22.4202 23.0706 22.3564 23.0205C22.2972 22.9704 22.2676 22.9111 22.2676 22.8428C22.2676 22.8063 22.2562 22.7812 22.2334 22.7676C22.2106 22.7493 22.1855 22.7288 22.1582 22.7061C22.1354 22.7835 22.1081 22.8451 22.0762 22.8906C22.0488 22.9362 22.0192 22.9727 21.9873 23C21.9508 23.0319 21.9144 23.0547 21.8779 23.0684C21.8597 23.0684 21.8438 23.0638 21.8301 23.0547C21.8027 23.0501 21.7822 23.0319 21.7686 23C21.7503 23.0365 21.7253 23.0729 21.6934 23.1094C21.666 23.1504 21.6387 23.1709 21.6113 23.1709C21.5977 23.1709 21.5771 23.1686 21.5498 23.1641C21.527 23.1641 21.502 23.1344 21.4746 23.0752C21.4518 23.016 21.4268 22.9157 21.3994 22.7744C21.3766 22.6286 21.3538 22.4121 21.3311 22.125C21.3128 21.8333 21.2969 21.4574 21.2832 20.9971C21.2695 20.5368 21.2627 19.9626 21.2627 19.2744C21.2627 18.9964 21.2627 18.7048 21.2627 18.3994C21.2627 18.0895 21.265 17.7865 21.2695 17.4902C21.2741 17.1895 21.2809 16.9023 21.29 16.6289C21.3037 16.3509 21.3197 16.1003 21.3379 15.877C21.3607 15.6491 21.388 15.46 21.4199 15.3096C21.4518 15.1546 21.4928 15.0498 21.543 14.9951C21.5794 14.9495 21.6432 14.9062 21.7344 14.8652C21.8301 14.8242 21.9235 14.7878 22.0146 14.7559C22.1058 14.7194 22.1855 14.6921 22.2539 14.6738C22.3223 14.651 22.3519 14.6351 22.3428 14.626C22.3656 14.6351 22.3838 14.651 22.3975 14.6738C22.4157 14.6921 22.4248 14.7194 22.4248 14.7559ZM22.6641 18.2832C22.6322 18.2832 22.5843 18.265 22.5205 18.2285C22.4613 18.1921 22.3952 18.1488 22.3223 18.0986C22.3086 18.4814 22.2949 18.8643 22.2812 19.2471C22.2676 19.6299 22.2539 19.9945 22.2402 20.3408C22.2266 20.6826 22.2152 20.9993 22.2061 21.291C22.2015 21.5827 22.1992 21.8265 22.1992 22.0225C22.2539 21.9359 22.3132 21.8538 22.377 21.7764C22.4408 21.6943 22.5023 21.6237 22.5615 21.5645C22.6253 21.5007 22.6823 21.4505 22.7324 21.4141C22.7871 21.3776 22.8281 21.3594 22.8555 21.3594C22.8646 21.3594 22.8737 21.3617 22.8828 21.3662C22.8919 21.3708 22.9124 21.389 22.9443 21.4209C22.9535 21.4209 22.9626 21.4186 22.9717 21.4141C22.9808 21.4095 22.9899 21.4072 22.999 21.4072C23.0355 21.4072 23.0628 21.4232 23.0811 21.4551C23.0993 21.487 23.1084 21.5485 23.1084 21.6396C23.1084 21.6898 23.0947 21.7331 23.0674 21.7695C23.04 21.806 23.0081 21.8402 22.9717 21.8721C22.9398 21.8994 22.9056 21.9268 22.8691 21.9541C22.8372 21.9814 22.8145 22.0088 22.8008 22.0361C22.8372 22.0452 22.8737 22.0521 22.9102 22.0566C22.9466 22.0612 23.0036 22.0635 23.0811 22.0635C23.1221 22.0589 23.2041 22.0521 23.3271 22.043C23.4548 22.0293 23.6165 21.9951 23.8125 21.9404C24.0085 21.8812 24.234 21.79 24.4893 21.667C24.749 21.5439 25.0316 21.3685 25.3369 21.1406C25.5967 20.9447 25.8063 20.7441 25.9658 20.5391C26.1253 20.334 26.2461 20.1426 26.3281 19.9648C26.4147 19.7826 26.4717 19.623 26.499 19.4863C26.5264 19.3496 26.54 19.2516 26.54 19.1924C26.5218 19.0238 26.4489 18.8711 26.3213 18.7344C26.1982 18.5931 26.0319 18.4723 25.8223 18.3721C25.6172 18.2718 25.3757 18.1943 25.0977 18.1396C24.8197 18.085 24.5212 18.0576 24.2021 18.0576C23.988 18.0576 23.7988 18.069 23.6348 18.0918C23.4707 18.1146 23.3249 18.1419 23.1973 18.1738C23.0742 18.2012 22.9694 18.2262 22.8828 18.249C22.7962 18.2718 22.7233 18.2832 22.6641 18.2832ZM30.2246 13.4502C30.2246 14.2751 30.2087 15.1136 30.1768 15.9658C30.1449 16.8135 30.1221 17.6566 30.1084 18.4951C30.1038 18.8779 30.1061 19.2585 30.1152 19.6367C30.1289 20.0104 30.1426 20.3682 30.1562 20.71C30.1745 21.0472 30.1904 21.3571 30.2041 21.6396C30.2178 21.9176 30.2246 22.1523 30.2246 22.3438C30.2246 22.4759 30.2201 22.583 30.2109 22.665C30.2018 22.7425 30.1859 22.7881 30.1631 22.8018C30.1403 22.8245 30.1198 22.8382 30.1016 22.8428C30.0833 22.8473 30.0651 22.8496 30.0469 22.8496C30.0286 22.8496 30.0081 22.8496 29.9854 22.8496C29.9671 22.8451 29.9443 22.8496 29.917 22.8633C29.8851 22.877 29.8646 22.8929 29.8555 22.9111C29.8464 22.9248 29.8372 22.9408 29.8281 22.959C29.819 22.9772 29.8053 22.9954 29.7871 23.0137C29.7689 23.0319 29.737 23.0501 29.6914 23.0684C29.6322 23.082 29.5752 23.0661 29.5205 23.0205C29.4704 22.9795 29.4202 22.9453 29.3701 22.918C29.2926 22.8724 29.2288 22.8359 29.1787 22.8086C29.1331 22.7767 29.0898 22.7288 29.0488 22.665C29.0169 22.6104 28.9896 22.5283 28.9668 22.4189C28.944 22.305 28.9258 22.1729 28.9121 22.0225C28.8984 21.8675 28.8893 21.6966 28.8848 21.5098C28.8802 21.3229 28.8779 21.1292 28.8779 20.9287C28.8779 20.7008 28.8802 20.473 28.8848 20.2451C28.8893 20.0127 28.8939 19.7917 28.8984 19.582C28.9076 19.3724 28.9144 19.1833 28.9189 19.0146C28.9235 18.846 28.9281 18.7093 28.9326 18.6045C28.9417 18.2764 28.9531 17.9323 28.9668 17.5723C28.985 17.2122 29.001 16.8545 29.0146 16.499C29.0329 16.139 29.0511 15.7926 29.0693 15.46C29.0876 15.1273 29.1058 14.8242 29.124 14.5508C29.1423 14.2728 29.1582 14.0381 29.1719 13.8467C29.1901 13.6507 29.2083 13.514 29.2266 13.4365C29.2539 13.3408 29.3018 13.2861 29.3701 13.2725C29.402 13.2588 29.4271 13.2611 29.4453 13.2793C29.4681 13.2975 29.4932 13.2861 29.5205 13.2451C29.5296 13.2223 29.5433 13.2087 29.5615 13.2041C29.5798 13.1995 29.598 13.1973 29.6162 13.1973C29.6344 13.1973 29.6527 13.1973 29.6709 13.1973C29.6891 13.1973 29.7051 13.1927 29.7188 13.1836C29.7461 13.1562 29.7734 13.1517 29.8008 13.1699C29.8327 13.1836 29.8555 13.1973 29.8691 13.2109C29.8828 13.2428 29.901 13.2679 29.9238 13.2861C29.9466 13.2998 29.9717 13.2952 29.999 13.2725C30.0127 13.2588 30.0309 13.252 30.0537 13.252C30.0811 13.252 30.0993 13.2633 30.1084 13.2861C30.1221 13.3089 30.1449 13.3317 30.1768 13.3545C30.2087 13.3773 30.2246 13.4092 30.2246 13.4502ZM40.1436 13.8467C40.1208 13.8923 40.098 13.9287 40.0752 13.9561C40.057 13.9834 40.041 14.0039 40.0273 14.0176C40.0091 14.0358 39.9932 14.0472 39.9795 14.0518C39.943 14.0609 39.8701 14.0745 39.7607 14.0928C39.6514 14.1064 39.5033 14.1178 39.3164 14.127C39.1797 14.1361 38.9928 14.1566 38.7559 14.1885C38.5189 14.2158 38.2477 14.2523 37.9424 14.2979C37.6416 14.3389 37.3135 14.3822 36.958 14.4277C36.6025 14.4733 36.2334 14.512 35.8506 14.5439C35.8141 15.182 35.7868 15.8337 35.7686 16.499C35.7549 17.1644 35.7435 17.8343 35.7344 18.5088C35.7253 19.1787 35.7161 19.8486 35.707 20.5186C35.7025 21.1839 35.6934 21.8379 35.6797 22.4805C35.6797 22.5033 35.6706 22.526 35.6523 22.5488C35.6341 22.5671 35.6204 22.583 35.6113 22.5967C35.5885 22.6878 35.5475 22.7676 35.4883 22.8359C35.429 22.8997 35.3675 22.9316 35.3037 22.9316C35.1123 22.9316 34.9642 22.902 34.8594 22.8428C34.7591 22.7835 34.6725 22.7197 34.5996 22.6514C34.5677 22.6104 34.5358 22.5511 34.5039 22.4736C34.4766 22.3916 34.4515 22.3027 34.4287 22.207C34.4059 22.1068 34.3854 22.002 34.3672 21.8926C34.349 21.7786 34.3376 21.6715 34.333 21.5713C34.3239 21.471 34.3171 21.373 34.3125 21.2773C34.3079 21.1816 34.3057 21.0837 34.3057 20.9834C34.3057 20.7646 34.3125 20.5505 34.3262 20.3408C34.3398 20.1312 34.3512 19.9352 34.3604 19.7529C34.3649 19.639 34.3717 19.4772 34.3809 19.2676C34.3945 19.0579 34.4105 18.8187 34.4287 18.5498C34.4469 18.2809 34.4674 17.9938 34.4902 17.6885C34.513 17.3786 34.5404 17.0687 34.5723 16.7588C34.6087 16.4489 34.6475 16.1481 34.6885 15.8564C34.7295 15.5602 34.7751 15.2913 34.8252 15.0498C34.848 14.9769 34.8685 14.9062 34.8867 14.8379C34.9049 14.765 34.9209 14.6898 34.9346 14.6123C34.5153 14.6396 34.1051 14.6533 33.7041 14.6533C33.1891 14.6533 32.6992 14.6237 32.2344 14.5645C31.7695 14.5007 31.373 14.3913 31.0449 14.2363C31.0039 14.2135 30.9811 14.1725 30.9766 14.1133C30.9674 14.054 30.9492 13.9925 30.9219 13.9287C30.8854 13.8786 30.8717 13.8239 30.8809 13.7646C30.89 13.7008 30.8945 13.6484 30.8945 13.6074C30.89 13.5664 30.9036 13.5391 30.9355 13.5254C30.9629 13.5117 31.0221 13.5072 31.1133 13.5117C31.1999 13.5117 31.3206 13.5163 31.4756 13.5254C31.6351 13.5345 31.8424 13.5391 32.0977 13.5391C32.2891 13.5391 32.5078 13.5345 32.7539 13.5254C33 13.5163 33.2803 13.5003 33.5947 13.4775C33.7497 13.4639 33.973 13.4434 34.2646 13.416C34.5609 13.3841 34.8936 13.3545 35.2627 13.3271C35.6364 13.2952 36.0329 13.2679 36.4521 13.2451C36.8714 13.2223 37.2861 13.2109 37.6963 13.2109C37.8512 13.2109 38.0244 13.2201 38.2158 13.2383C38.4072 13.252 38.5964 13.2725 38.7832 13.2998C38.9746 13.3271 39.1501 13.359 39.3096 13.3955C39.4736 13.432 39.6081 13.4684 39.7129 13.5049C39.7812 13.5322 39.8223 13.5573 39.8359 13.5801C39.8496 13.5983 39.8542 13.6143 39.8496 13.6279C39.8496 13.6416 39.8473 13.653 39.8428 13.6621C39.8382 13.6712 39.8496 13.6803 39.877 13.6895C39.9043 13.6986 39.9339 13.7054 39.9658 13.71C39.9977 13.7145 40.0273 13.7236 40.0547 13.7373C40.082 13.7464 40.1048 13.7601 40.123 13.7783C40.1413 13.7965 40.1481 13.8193 40.1436 13.8467ZM46.3506 13.7988C46.3415 14.0085 46.3301 14.2819 46.3164 14.6191C46.3073 14.9518 46.2959 15.3255 46.2822 15.7402C46.2731 16.1504 46.2617 16.5879 46.248 17.0527C46.2389 17.5176 46.2298 17.9847 46.2207 18.4541C46.2116 18.9235 46.2048 19.3815 46.2002 19.8281C46.1956 20.2747 46.1934 20.6872 46.1934 21.0654C46.1934 21.4893 46.1956 21.8516 46.2002 22.1523C46.2093 22.4531 46.2207 22.6605 46.2344 22.7744C46.2435 22.8109 46.2435 22.8359 46.2344 22.8496C46.2298 22.8633 46.2207 22.8724 46.207 22.877C46.1934 22.8815 46.1774 22.8861 46.1592 22.8906C46.141 22.8906 46.125 22.8952 46.1113 22.9043C46.0977 22.9134 46.0908 22.9271 46.0908 22.9453C46.0908 22.9635 46.0908 22.9818 46.0908 23C46.0908 23.0182 46.0885 23.0342 46.084 23.0479C46.0794 23.0615 46.0658 23.0684 46.043 23.0684C45.8971 23.0684 45.7878 23.0547 45.7148 23.0273C45.6465 23 45.5827 22.9544 45.5234 22.8906C45.4551 22.8177 45.3936 22.7357 45.3389 22.6445C45.2887 22.5534 45.2568 22.4486 45.2432 22.3301C45.2386 22.2891 45.2318 22.2344 45.2227 22.166C45.2135 22.0977 45.2021 22.0225 45.1885 21.9404C45.1794 21.8538 45.1702 21.7604 45.1611 21.6602C45.1566 21.5599 45.1566 21.4551 45.1611 21.3457C45.1611 21.2181 45.1589 21.0928 45.1543 20.9697C45.1497 20.8467 45.1429 20.7259 45.1338 20.6074C45.0791 20.7487 45.0153 20.9105 44.9424 21.0928C44.8695 21.2705 44.7806 21.4528 44.6758 21.6396C44.571 21.8265 44.4502 22.0088 44.3135 22.1865C44.1813 22.3643 44.0264 22.5238 43.8486 22.665C43.6755 22.8018 43.4795 22.9134 43.2607 23C43.042 23.082 42.7982 23.123 42.5293 23.123C42.3151 23.123 42.0895 23.0957 41.8525 23.041C41.5381 22.959 41.2669 22.8382 41.0391 22.6787C40.8112 22.5192 40.6175 22.3255 40.458 22.0977C40.2985 21.8652 40.1663 21.6032 40.0615 21.3115C39.9613 21.0153 39.877 20.6917 39.8086 20.3408C39.7858 20.2132 39.7676 20.0742 39.7539 19.9238C39.7448 19.7689 39.7402 19.5957 39.7402 19.4043C39.7402 19.0169 39.7585 18.5863 39.7949 18.1123C39.8314 17.6383 39.8724 17.1576 39.918 16.6699C39.9635 16.1823 40.0068 15.7061 40.0479 15.2412C40.0889 14.7718 40.1139 14.3525 40.123 13.9834C40.123 13.8649 40.1322 13.7738 40.1504 13.71C40.1732 13.6416 40.2324 13.5892 40.3281 13.5527C40.3464 13.5482 40.3646 13.5505 40.3828 13.5596C40.401 13.5641 40.4193 13.5687 40.4375 13.5732C40.4557 13.5732 40.4762 13.5687 40.499 13.5596C40.5218 13.5505 40.5446 13.5322 40.5674 13.5049C40.5947 13.4639 40.6198 13.4434 40.6426 13.4434C40.6654 13.4388 40.6836 13.4456 40.6973 13.4639C40.7155 13.4821 40.7314 13.5026 40.7451 13.5254C40.7633 13.5482 40.7793 13.5618 40.793 13.5664C40.8112 13.5755 40.8385 13.5983 40.875 13.6348C40.916 13.6712 40.9548 13.7145 40.9912 13.7646C41.0277 13.8102 41.0596 13.8581 41.0869 13.9082C41.1143 13.9538 41.1279 13.9925 41.1279 14.0244C41.1279 14.0609 41.1416 14.127 41.1689 14.2227C41.1963 14.3184 41.2145 14.4528 41.2236 14.626C41.2373 14.8493 41.2373 15.1204 41.2236 15.4395C41.2145 15.7539 41.1986 16.0934 41.1758 16.458C41.153 16.818 41.1279 17.1872 41.1006 17.5654C41.0732 17.9437 41.0482 18.3083 41.0254 18.6592C41.0026 19.0101 40.9844 19.3337 40.9707 19.6299C40.957 19.9215 40.957 20.1631 40.9707 20.3545C41.0026 20.792 41.0391 21.1361 41.0801 21.3867C41.1257 21.6328 41.1735 21.7695 41.2236 21.7969C41.2738 21.8242 41.333 21.8424 41.4014 21.8516C41.4743 21.8607 41.57 21.8652 41.6885 21.8652C42.3538 21.8333 42.9076 21.7103 43.3496 21.4961C43.7917 21.2773 44.1471 20.9561 44.416 20.5322C44.6895 20.1084 44.89 19.5729 45.0176 18.9258C45.1497 18.2741 45.234 17.4993 45.2705 16.6016C45.2842 16.2279 45.3001 15.8952 45.3184 15.6035C45.3366 15.3118 45.3548 15.0475 45.373 14.8105C45.3958 14.5736 45.4186 14.3571 45.4414 14.1611C45.4688 13.9652 45.4961 13.776 45.5234 13.5938C45.5326 13.5664 45.5553 13.5436 45.5918 13.5254C45.6283 13.5072 45.6624 13.4912 45.6943 13.4775C45.7171 13.4548 45.7285 13.4342 45.7285 13.416C45.7331 13.3932 45.7536 13.3773 45.79 13.3682C45.8083 13.3636 45.8333 13.359 45.8652 13.3545C45.8971 13.3454 45.929 13.3454 45.9609 13.3545C45.9974 13.359 46.0293 13.3704 46.0566 13.3887C46.0885 13.4069 46.1113 13.4365 46.125 13.4775C46.1387 13.5094 46.166 13.5322 46.207 13.5459C46.248 13.5596 46.2822 13.5801 46.3096 13.6074C46.3232 13.6302 46.3346 13.6553 46.3438 13.6826C46.3574 13.71 46.3597 13.7487 46.3506 13.7988ZM55.2031 15.583C55.2031 15.8428 55.1621 16.1048 55.0801 16.3691C54.998 16.6335 54.8773 16.8887 54.7178 17.1348C54.5628 17.3809 54.3737 17.6133 54.1504 17.832C53.9316 18.0508 53.6855 18.2445 53.4121 18.4131C53.1432 18.5771 52.8516 18.7116 52.5371 18.8164C52.2227 18.9212 51.8945 18.985 51.5527 19.0078C51.4889 19.0169 51.4251 19.0169 51.3613 19.0078C51.3021 18.9941 51.2474 18.9805 51.1973 18.9668C51.1608 18.9531 51.1084 18.9326 51.04 18.9053C50.9762 18.8779 50.9352 18.8574 50.917 18.8438C50.8896 18.8164 50.8509 18.7754 50.8008 18.7207C50.7552 18.6615 50.721 18.6136 50.6982 18.5771C50.6846 18.5544 50.6777 18.5179 50.6777 18.4678C50.6823 18.4131 50.6846 18.3516 50.6846 18.2832C50.6846 18.2194 50.6823 18.1533 50.6777 18.085C50.6777 18.012 50.6846 17.971 50.6982 17.9619C50.7074 17.9528 50.7279 17.9619 50.7598 17.9893C50.7962 18.012 50.8646 18.0303 50.9648 18.0439C51.0059 18.0531 51.0514 18.0553 51.1016 18.0508C51.1562 18.0462 51.2087 18.0394 51.2588 18.0303C51.4183 18.0166 51.6029 17.971 51.8125 17.8936C52.0221 17.8161 52.2363 17.7135 52.4551 17.5859C52.6784 17.4583 52.8971 17.3102 53.1113 17.1416C53.3255 16.9684 53.5146 16.7839 53.6787 16.5879C53.8473 16.3919 53.9818 16.1846 54.082 15.9658C54.1868 15.7471 54.2393 15.526 54.2393 15.3027C54.2393 15.1296 54.2051 14.9632 54.1367 14.8037C54.0684 14.6396 53.9613 14.4779 53.8154 14.3184C53.7243 14.2135 53.5465 14.1315 53.2822 14.0723C53.0179 14.013 52.7012 13.9834 52.332 13.9834C52.0176 13.9834 51.6803 14.0085 51.3203 14.0586C50.9603 14.1087 50.6025 14.1908 50.2471 14.3047C49.9417 14.4049 49.682 14.4938 49.4678 14.5713C49.2536 14.6442 49.069 14.7103 48.9141 14.7695C48.7637 14.8288 48.6383 14.8789 48.5381 14.9199C48.4424 14.9609 48.3581 14.9974 48.2852 15.0293C48.2122 15.0566 48.1462 15.084 48.0869 15.1113C48.0277 15.1341 47.9639 15.1546 47.8955 15.1729C47.8317 15.1956 47.7816 15.2093 47.7451 15.2139C47.7087 15.2139 47.679 15.2139 47.6562 15.2139C47.6198 15.2048 47.5924 15.1956 47.5742 15.1865C47.5605 15.1729 47.5423 15.1592 47.5195 15.1455C47.5013 15.1318 47.4831 15.1273 47.4648 15.1318C47.4466 15.1318 47.4284 15.1341 47.4102 15.1387C47.3965 15.1432 47.3805 15.1432 47.3623 15.1387C47.3441 15.1341 47.3258 15.1182 47.3076 15.0908C47.2803 15.0407 47.262 15.002 47.2529 14.9746C47.2393 14.9427 47.2324 14.9176 47.2324 14.8994C47.2279 14.8766 47.2279 14.8561 47.2324 14.8379C47.237 14.8197 47.2438 14.7969 47.2529 14.7695C47.2575 14.7422 47.2575 14.7171 47.2529 14.6943C47.2484 14.6715 47.2461 14.651 47.2461 14.6328C47.2415 14.6146 47.2438 14.5964 47.2529 14.5781C47.2575 14.5553 47.2757 14.5303 47.3076 14.5029C47.3714 14.4528 47.4762 14.3753 47.6221 14.2705C47.7679 14.1657 47.9479 14.0518 48.1621 13.9287C48.3809 13.8011 48.6292 13.6712 48.9072 13.5391C49.1898 13.4069 49.4951 13.2861 49.8232 13.1768C50.1559 13.0628 50.5091 12.9694 50.8828 12.8965C51.2611 12.819 51.6553 12.7757 52.0654 12.7666C52.4756 12.7575 52.8356 12.8031 53.1455 12.9033C53.46 12.999 53.7334 13.1289 53.9658 13.293C54.1982 13.4525 54.3919 13.637 54.5469 13.8467C54.7064 14.0518 54.834 14.2591 54.9297 14.4688C55.0254 14.6784 55.0938 14.8812 55.1348 15.0771C55.1758 15.2731 55.1986 15.4417 55.2031 15.583ZM50.5137 14.667C50.5091 14.6898 50.5 14.7673 50.4863 14.8994C50.4772 15.0316 50.4635 15.2025 50.4453 15.4121C50.4316 15.6172 50.4157 15.8519 50.3975 16.1162C50.3792 16.3805 50.361 16.6562 50.3428 16.9434C50.3245 17.2305 50.3063 17.5221 50.2881 17.8184C50.2744 18.11 50.2653 18.3903 50.2607 18.6592C50.2516 18.9326 50.2448 19.2152 50.2402 19.5068C50.2357 19.7939 50.2334 20.0856 50.2334 20.3818C50.2334 20.7236 50.2402 21.0609 50.2539 21.3936C50.2721 21.7262 50.3018 22.0475 50.3428 22.3574C50.361 22.4622 50.3542 22.5443 50.3223 22.6035C50.2904 22.6628 50.2744 22.7152 50.2744 22.7607C50.2744 22.7744 50.2812 22.7881 50.2949 22.8018C50.3086 22.8109 50.3109 22.82 50.3018 22.8291C50.2881 22.8519 50.263 22.861 50.2266 22.8564C50.1947 22.8519 50.165 22.8382 50.1377 22.8154C50.124 22.8018 50.1126 22.7858 50.1035 22.7676C50.0944 22.7448 50.0853 22.7266 50.0762 22.7129C50.0671 22.6992 50.0557 22.6924 50.042 22.6924C50.0283 22.6878 50.0078 22.6969 49.9805 22.7197C49.9577 22.7425 49.9303 22.7744 49.8984 22.8154C49.8711 22.8564 49.8415 22.8997 49.8096 22.9453C49.7777 22.9863 49.7458 23.0228 49.7139 23.0547C49.682 23.0911 49.6501 23.1139 49.6182 23.123C49.5908 23.1322 49.5566 23.1413 49.5156 23.1504C49.4792 23.1595 49.4564 23.1458 49.4473 23.1094C49.4382 23.0911 49.429 23.0798 49.4199 23.0752C49.4108 23.0706 49.3994 23.0638 49.3857 23.0547C49.3721 23.0501 49.3584 23.041 49.3447 23.0273C49.3356 23.0182 49.3288 22.9954 49.3242 22.959C49.3014 22.8815 49.2741 22.8245 49.2422 22.7881C49.2148 22.7471 49.2012 22.7015 49.2012 22.6514C49.1921 22.5739 49.1693 22.3506 49.1328 21.9814C49.1009 21.6123 49.085 21.1019 49.085 20.4502C49.085 20.1904 49.0872 19.9079 49.0918 19.6025C49.1009 19.2972 49.1169 18.9736 49.1396 18.6318C49.1624 18.3265 49.1898 17.9961 49.2217 17.6406C49.2536 17.2852 49.2855 16.9365 49.3174 16.5947C49.3538 16.2529 49.3857 15.9339 49.4131 15.6377C49.4404 15.3415 49.4609 15.0977 49.4746 14.9062C49.4792 14.8743 49.4906 14.8538 49.5088 14.8447C49.527 14.8356 49.5521 14.8288 49.584 14.8242C49.6159 14.8197 49.6569 14.8151 49.707 14.8105C49.7572 14.8014 49.8164 14.7832 49.8848 14.7559C49.9395 14.7285 50.0033 14.7012 50.0762 14.6738C50.1536 14.6465 50.2243 14.626 50.2881 14.6123C50.3564 14.5941 50.4111 14.5872 50.4521 14.5918C50.4977 14.5964 50.5182 14.6214 50.5137 14.667Z" fill="white"/>
<path d="M40.054 32.4499C40.654 33.0498 40.654 34.0241 40.054 34.624L27.7674 46.9101C27.1675 47.51 26.1932 47.51 25.5933 46.9101L19.4499 40.767C18.85 40.1671 18.85 39.1929 19.4499 38.593C20.0499 37.9931 21.0242 37.9931 21.6241 38.593L26.6827 43.6466L37.8847 32.4499C38.4846 31.85 39.4589 31.85 40.0588 32.4499H40.054Z" fill="white"/>
</g>
<defs>
<clipPath id="clip0_19_3">
<rect width="55" height="40" fill="white" transform="translate(2 10)"/>
</clipPath>
</defs>
</svg>
